<mxfile host="app.diagrams.net" agent="Mozilla/5.0 (Windows NT 10.0; Win64; x64) AppleWebKit/537.36 (KHTML, like Gecko) Chrome/133.0.0.0 Safari/537.36 OPR/118.0.0.0" version="26.1.1">
  <diagram name="Страница — 1" id="Y-b1qlfSew9quVU4QJQj">
    <mxGraphModel dx="1897" dy="796" grid="0" gridSize="10" guides="1" tooltips="1" connect="1" arrows="1" fold="1" page="0" pageScale="1" pageWidth="827" pageHeight="1169" math="0" shadow="0">
      <root>
        <mxCell id="0" />
        <mxCell id="1" parent="0" />
        <mxCell id="SfF8hPCJs0BWfvehX4Wd-1" value="&lt;pre style=&quot;font-family: Menlo, &amp;quot;Roboto Mono&amp;quot;, &amp;quot;Courier New&amp;quot;, Courier, monospace, Inter, sans-serif; overflow: auto; padding: 9.144px 13.716px; text-wrap-mode: wrap; word-break: break-all; color: rgb(73, 73, 73); font-size: 12.573px; margin-top: 0px !important; margin-bottom: 0px !important;&quot;&gt;&lt;br&gt;&lt;/pre&gt;" style="triangle;whiteSpace=wrap;html=1;align=left;fillColor=#fff2cc;strokeColor=#d6b656;fillStyle=auto;rounded=0;shadow=0;perimeterSpacing=1;opacity=60;" parent="1" vertex="1">
          <mxGeometry x="690" y="240" width="160" height="160" as="geometry" />
        </mxCell>
        <mxCell id="SfF8hPCJs0BWfvehX4Wd-2" value="&lt;pre style=&quot;text-align: left; overflow: auto; padding: 9.144px 13.716px; text-wrap-mode: wrap; word-break: break-all; color: rgb(73, 73, 73); margin-top: 0px !important; margin-bottom: 0px !important;&quot;&gt;&lt;font face=&quot;Comic Sans MS&quot;&gt;&lt;span style=&quot;font-size: 15px;&quot;&gt;&lt;b&gt;Нарушение &lt;/b&gt;&lt;/span&gt;&lt;/font&gt;&lt;/pre&gt;&lt;pre style=&quot;text-align: left; overflow: auto; padding: 9.144px 13.716px; text-wrap-mode: wrap; word-break: break-all; color: rgb(73, 73, 73); margin-top: 0px !important; margin-bottom: 0px !important;&quot;&gt;&lt;font face=&quot;Comic Sans MS&quot;&gt;&lt;span style=&quot;font-size: 15px;&quot;&gt;&lt;b&gt;режима сна&lt;/b&gt;&lt;/span&gt;&lt;/font&gt;&lt;/pre&gt;" style="text;html=1;align=center;verticalAlign=middle;whiteSpace=wrap;rounded=0;" parent="1" vertex="1">
          <mxGeometry x="684" y="285.63" width="116" height="64.37" as="geometry" />
        </mxCell>
        <mxCell id="SfF8hPCJs0BWfvehX4Wd-3" value="" style="endArrow=none;html=1;rounded=0;entryX=0;entryY=0.5;entryDx=0;entryDy=0;" parent="1" edge="1">
          <mxGeometry width="50" height="50" relative="1" as="geometry">
            <mxPoint x="-120" y="320" as="sourcePoint" />
            <mxPoint x="690" y="318.90500000000003" as="targetPoint" />
          </mxGeometry>
        </mxCell>
        <mxCell id="SfF8hPCJs0BWfvehX4Wd-4" value="" style="endArrow=none;html=1;rounded=0;" parent="1" edge="1">
          <mxGeometry width="50" height="50" relative="1" as="geometry">
            <mxPoint x="600" y="320" as="sourcePoint" />
            <mxPoint x="400" y="120" as="targetPoint" />
          </mxGeometry>
        </mxCell>
        <mxCell id="SfF8hPCJs0BWfvehX4Wd-5" value="" style="endArrow=none;html=1;rounded=0;" parent="1" edge="1">
          <mxGeometry width="50" height="50" relative="1" as="geometry">
            <mxPoint x="400" y="520" as="sourcePoint" />
            <mxPoint x="600" y="320" as="targetPoint" />
          </mxGeometry>
        </mxCell>
        <mxCell id="SfF8hPCJs0BWfvehX4Wd-6" value="" style="endArrow=none;html=1;rounded=0;" parent="1" edge="1">
          <mxGeometry width="50" height="50" relative="1" as="geometry">
            <mxPoint x="400" y="320" as="sourcePoint" />
            <mxPoint x="200" y="120" as="targetPoint" />
          </mxGeometry>
        </mxCell>
        <mxCell id="SfF8hPCJs0BWfvehX4Wd-7" value="" style="endArrow=none;html=1;rounded=0;" parent="1" edge="1">
          <mxGeometry width="50" height="50" relative="1" as="geometry">
            <mxPoint x="200" y="520" as="sourcePoint" />
            <mxPoint x="400" y="320" as="targetPoint" />
          </mxGeometry>
        </mxCell>
        <mxCell id="SfF8hPCJs0BWfvehX4Wd-8" value="" style="endArrow=none;html=1;rounded=0;" parent="1" edge="1">
          <mxGeometry width="50" height="50" relative="1" as="geometry">
            <mxPoint y="520" as="sourcePoint" />
            <mxPoint x="200" y="320" as="targetPoint" />
          </mxGeometry>
        </mxCell>
        <mxCell id="SfF8hPCJs0BWfvehX4Wd-9" value="" style="endArrow=none;html=1;rounded=0;" parent="1" edge="1">
          <mxGeometry width="50" height="50" relative="1" as="geometry">
            <mxPoint x="200" y="320" as="sourcePoint" />
            <mxPoint y="120" as="targetPoint" />
          </mxGeometry>
        </mxCell>
        <mxCell id="SfF8hPCJs0BWfvehX4Wd-11" value="&lt;div style=&quot;text-align: left;&quot;&gt;&lt;span style=&quot;background-color: transparent; font-size: 15px;&quot;&gt;&lt;font face=&quot;Comic Sans MS&quot; color=&quot;#404040&quot;&gt;&lt;b&gt;Распорядок дня&lt;/b&gt;&lt;/font&gt;&lt;/span&gt;&lt;/div&gt;" style="rounded=0;whiteSpace=wrap;html=1;fillColor=#fff2cc;strokeColor=#d6b656;" parent="1" vertex="1">
          <mxGeometry x="340" y="60" width="120" height="60" as="geometry" />
        </mxCell>
        <mxCell id="SfF8hPCJs0BWfvehX4Wd-12" value="" style="endArrow=none;html=1;rounded=0;" parent="1" edge="1">
          <mxGeometry width="50" height="50" relative="1" as="geometry">
            <mxPoint x="30" y="190" as="sourcePoint" />
            <mxPoint x="70" y="190" as="targetPoint" />
          </mxGeometry>
        </mxCell>
        <mxCell id="SfF8hPCJs0BWfvehX4Wd-13" value="" style="endArrow=none;html=1;rounded=0;" parent="1" edge="1">
          <mxGeometry width="50" height="50" relative="1" as="geometry">
            <mxPoint x="400" y="160" as="sourcePoint" />
            <mxPoint x="440" y="160" as="targetPoint" />
          </mxGeometry>
        </mxCell>
        <mxCell id="SfF8hPCJs0BWfvehX4Wd-14" value="&lt;div style=&quot;text-align: left;&quot;&gt;&lt;span style=&quot;background-color: transparent; font-size: 14.002px;&quot;&gt;&lt;font face=&quot;Comic Sans MS&quot; color=&quot;#404040&quot;&gt;Отсутсвие фиксированного времени сна&lt;/font&gt;&lt;/span&gt;&lt;/div&gt;" style="text;html=1;align=center;verticalAlign=middle;whiteSpace=wrap;rounded=0;labelBackgroundColor=none;" parent="1" vertex="1">
          <mxGeometry x="310" y="140" width="90" height="40" as="geometry" />
        </mxCell>
        <mxCell id="SfF8hPCJs0BWfvehX4Wd-15" value="" style="endArrow=none;html=1;rounded=0;" parent="1" edge="1">
          <mxGeometry width="50" height="50" relative="1" as="geometry">
            <mxPoint x="460" y="220" as="sourcePoint" />
            <mxPoint x="500" y="220" as="targetPoint" />
          </mxGeometry>
        </mxCell>
        <mxCell id="SfF8hPCJs0BWfvehX4Wd-16" value="&lt;div style=&quot;text-align: left;&quot;&gt;&lt;span style=&quot;background-color: transparent; color: light-dark(rgb(64, 64, 64), rgb(182, 182, 182)); font-size: 14px;&quot;&gt;&lt;font face=&quot;Comic Sans MS&quot;&gt;Неправильное планирование задач&lt;/font&gt;&lt;/span&gt;&lt;/div&gt;" style="text;html=1;align=center;verticalAlign=middle;whiteSpace=wrap;rounded=0;labelBackgroundColor=none;fontColor=#404040;" parent="1" vertex="1">
          <mxGeometry x="460" y="262" width="60" height="30" as="geometry" />
        </mxCell>
        <mxCell id="SfF8hPCJs0BWfvehX4Wd-17" value="" style="endArrow=none;html=1;rounded=0;" parent="1" edge="1">
          <mxGeometry width="50" height="50" relative="1" as="geometry">
            <mxPoint x="520" y="280" as="sourcePoint" />
            <mxPoint x="560" y="280" as="targetPoint" />
          </mxGeometry>
        </mxCell>
        <mxCell id="SfF8hPCJs0BWfvehX4Wd-18" value="&lt;font face=&quot;Comic Sans MS&quot;&gt;&lt;span style=&quot;font-size: 14px;&quot;&gt;Поздний подъем&lt;/span&gt;&lt;/font&gt;" style="text;html=1;align=center;verticalAlign=middle;whiteSpace=wrap;rounded=0;fontColor=#404040;" parent="1" vertex="1">
          <mxGeometry x="382" y="204" width="60" height="30" as="geometry" />
        </mxCell>
        <mxCell id="SfF8hPCJs0BWfvehX4Wd-19" value="&lt;div style=&quot;text-align: left;&quot;&gt;&lt;span style=&quot;background-color: transparent; font-size: 15px;&quot;&gt;&lt;font face=&quot;Comic Sans MS&quot; color=&quot;#404040&quot;&gt;&lt;b&gt;Эмоциональное состояние&lt;/b&gt;&lt;/font&gt;&lt;/span&gt;&lt;/div&gt;" style="rounded=0;whiteSpace=wrap;html=1;fillColor=#fff2cc;strokeColor=#d6b656;" parent="1" vertex="1">
          <mxGeometry x="140" y="520" width="120" height="60" as="geometry" />
        </mxCell>
        <mxCell id="SfF8hPCJs0BWfvehX4Wd-20" value="&lt;div style=&quot;text-align: left;&quot;&gt;&lt;span style=&quot;background-color: transparent; font-size: 15px;&quot;&gt;&lt;font face=&quot;Comic Sans MS&quot; color=&quot;#404040&quot;&gt;&lt;b&gt;Технологии&lt;/b&gt;&lt;/font&gt;&lt;/span&gt;&lt;/div&gt;" style="rounded=0;whiteSpace=wrap;html=1;fillColor=#fff2cc;strokeColor=#d6b656;" parent="1" vertex="1">
          <mxGeometry x="140" y="60" width="120" height="60" as="geometry" />
        </mxCell>
        <mxCell id="SfF8hPCJs0BWfvehX4Wd-21" value="&lt;div style=&quot;text-align: left;&quot;&gt;&lt;span style=&quot;background-color: transparent; font-size: 15px;&quot;&gt;&lt;font face=&quot;Comic Sans MS&quot; color=&quot;#404040&quot;&gt;&lt;b&gt;Учеба&lt;/b&gt;&lt;/font&gt;&lt;/span&gt;&lt;/div&gt;" style="rounded=0;whiteSpace=wrap;html=1;fillColor=#fff2cc;strokeColor=#d6b656;" parent="1" vertex="1">
          <mxGeometry x="-60" y="60" width="120" height="60" as="geometry" />
        </mxCell>
        <mxCell id="SfF8hPCJs0BWfvehX4Wd-22" value="&lt;div style=&quot;text-align: left;&quot;&gt;&lt;span style=&quot;background-color: transparent; font-size: 15px;&quot;&gt;&lt;font face=&quot;Comic Sans MS&quot; color=&quot;#404040&quot;&gt;&lt;b&gt;Внешняя среда&lt;/b&gt;&lt;/font&gt;&lt;/span&gt;&lt;/div&gt;" style="rounded=0;whiteSpace=wrap;html=1;fillColor=#fff2cc;strokeColor=#d6b656;" parent="1" vertex="1">
          <mxGeometry x="340" y="520" width="120" height="60" as="geometry" />
        </mxCell>
        <mxCell id="SfF8hPCJs0BWfvehX4Wd-23" value="" style="endArrow=none;html=1;rounded=0;" parent="1" edge="1">
          <mxGeometry width="50" height="50" relative="1" as="geometry">
            <mxPoint x="290" y="390" as="sourcePoint" />
            <mxPoint x="330" y="390" as="targetPoint" />
          </mxGeometry>
        </mxCell>
        <mxCell id="SfF8hPCJs0BWfvehX4Wd-26" value="&lt;div style=&quot;text-align: left;&quot;&gt;&lt;span style=&quot;background-color: transparent; color: light-dark(rgb(64, 64, 64), rgb(182, 182, 182)); font-size: 14px;&quot;&gt;&lt;font face=&quot;Comic Sans MS&quot;&gt;Усталость и выгорание&lt;/font&gt;&lt;/span&gt;&lt;/div&gt;" style="text;html=1;align=center;verticalAlign=middle;whiteSpace=wrap;rounded=0;labelBackgroundColor=none;fontColor=#404040;" parent="1" vertex="1">
          <mxGeometry x="217" y="370" width="70" height="30" as="geometry" />
        </mxCell>
        <mxCell id="SfF8hPCJs0BWfvehX4Wd-27" value="" style="endArrow=none;html=1;rounded=0;" parent="1" edge="1">
          <mxGeometry width="50" height="50" relative="1" as="geometry">
            <mxPoint x="232" y="447.71" as="sourcePoint" />
            <mxPoint x="272" y="447.71" as="targetPoint" />
          </mxGeometry>
        </mxCell>
        <mxCell id="SfF8hPCJs0BWfvehX4Wd-29" value="&lt;pre style=&quot;overflow: auto; padding: 9.144px 13.716px; text-wrap-mode: wrap; word-break: break-all; color: rgb(73, 73, 73); margin-top: 0px !important; margin-bottom: 0px !important;&quot;&gt;&lt;font face=&quot;Comic Sans MS&quot;&gt;&lt;span style=&quot;font-size: 14px;&quot;&gt;Стресс и тревожные мысли&lt;/span&gt;&lt;/font&gt;&lt;/pre&gt;" style="text;html=1;align=center;verticalAlign=middle;whiteSpace=wrap;rounded=0;" parent="1" vertex="1">
          <mxGeometry x="120" y="423" width="120" height="47" as="geometry" />
        </mxCell>
        <mxCell id="SfF8hPCJs0BWfvehX4Wd-30" value="" style="endArrow=none;html=1;rounded=0;" parent="1" edge="1">
          <mxGeometry width="50" height="50" relative="1" as="geometry">
            <mxPoint x="490" y="390" as="sourcePoint" />
            <mxPoint x="530" y="390" as="targetPoint" />
          </mxGeometry>
        </mxCell>
        <mxCell id="SfF8hPCJs0BWfvehX4Wd-31" value="" style="endArrow=none;html=1;rounded=0;exitX=0.998;exitY=0.608;exitDx=0;exitDy=0;exitPerimeter=0;" parent="1" source="SfF8hPCJs0BWfvehX4Wd-34" edge="1">
          <mxGeometry width="50" height="50" relative="1" as="geometry">
            <mxPoint x="430" y="446.71999999999997" as="sourcePoint" />
            <mxPoint x="470" y="450" as="targetPoint" />
          </mxGeometry>
        </mxCell>
        <mxCell id="SfF8hPCJs0BWfvehX4Wd-33" value="&lt;font face=&quot;Comic Sans MS&quot;&gt;&lt;span style=&quot;font-size: 14px;&quot;&gt;Шум за окнами&lt;/span&gt;&lt;/font&gt;" style="text;html=1;align=center;verticalAlign=middle;whiteSpace=wrap;rounded=0;labelBackgroundColor=none;fontColor=#404040;" parent="1" vertex="1">
          <mxGeometry x="413" y="370" width="60" height="30" as="geometry" />
        </mxCell>
        <mxCell id="SfF8hPCJs0BWfvehX4Wd-34" value="&lt;font face=&quot;Comic Sans MS&quot;&gt;&lt;span style=&quot;font-size: 14px;&quot;&gt;Нарушение сна у других членов семьи&lt;/span&gt;&lt;/font&gt;" style="text;html=1;align=center;verticalAlign=middle;whiteSpace=wrap;rounded=0;labelBackgroundColor=none;fontColor=#404040;" parent="1" vertex="1">
          <mxGeometry x="300" y="431.5" width="130" height="30" as="geometry" />
        </mxCell>
        <mxCell id="SfF8hPCJs0BWfvehX4Wd-35" value="&lt;font face=&quot;Comic Sans MS&quot;&gt;&lt;span style=&quot;font-size: 14px;&quot;&gt;Уведомления и переписки ночью&lt;/span&gt;&lt;/font&gt;" style="text;html=1;align=center;verticalAlign=middle;whiteSpace=wrap;rounded=0;labelBackgroundColor=none;fontColor=#404040;" parent="1" vertex="1">
          <mxGeometry x="190" y="209" width="80" height="20" as="geometry" />
        </mxCell>
        <mxCell id="SfF8hPCJs0BWfvehX4Wd-36" value="&lt;font face=&quot;Comic Sans MS&quot;&gt;&lt;span style=&quot;font-size: 14px;&quot;&gt;Скроллинг соцсетей&lt;/span&gt;&lt;/font&gt;" style="text;html=1;align=center;verticalAlign=middle;whiteSpace=wrap;rounded=0;labelBackgroundColor=none;fontColor=#404040;" parent="1" vertex="1">
          <mxGeometry x="87" y="143" width="130" height="30" as="geometry" />
        </mxCell>
        <mxCell id="SfF8hPCJs0BWfvehX4Wd-37" value="&lt;font face=&quot;Comic Sans MS&quot;&gt;&lt;span style=&quot;font-size: 14px;&quot;&gt;Отсутсвие цифровой гигиены&lt;/span&gt;&lt;/font&gt;" style="text;html=1;align=center;verticalAlign=middle;whiteSpace=wrap;rounded=0;labelBackgroundColor=none;fontColor=#404040;" parent="1" vertex="1">
          <mxGeometry x="260" y="270" width="60" height="20" as="geometry" />
        </mxCell>
        <mxCell id="SfF8hPCJs0BWfvehX4Wd-40" value="&lt;font face=&quot;Comic Sans MS&quot;&gt;&lt;span style=&quot;font-size: 14px;&quot;&gt;Позднее выполнение домашних заданий&lt;/span&gt;&lt;/font&gt;" style="text;html=1;align=center;verticalAlign=middle;whiteSpace=wrap;rounded=0;labelBackgroundColor=none;fontColor=#404040;" parent="1" vertex="1">
          <mxGeometry x="-35" y="178" width="70" height="20" as="geometry" />
        </mxCell>
        <mxCell id="SfF8hPCJs0BWfvehX4Wd-41" value="&lt;font face=&quot;Comic Sans MS&quot;&gt;&lt;span style=&quot;font-size: 14px;&quot;&gt;Подготовка к экзаменам в ночное время&lt;/span&gt;&lt;/font&gt;" style="text;html=1;align=center;verticalAlign=middle;whiteSpace=wrap;rounded=0;labelBackgroundColor=none;fontColor=#404040;" parent="1" vertex="1">
          <mxGeometry y="240" width="95" height="21" as="geometry" />
        </mxCell>
        <mxCell id="SfF8hPCJs0BWfvehX4Wd-44" value="" style="endArrow=none;html=1;rounded=0;" parent="1" edge="1">
          <mxGeometry width="50" height="50" relative="1" as="geometry">
            <mxPoint x="200" y="159.79" as="sourcePoint" />
            <mxPoint x="240" y="159.79" as="targetPoint" />
          </mxGeometry>
        </mxCell>
        <mxCell id="SfF8hPCJs0BWfvehX4Wd-45" value="" style="endArrow=none;html=1;rounded=0;" parent="1" edge="1">
          <mxGeometry width="50" height="50" relative="1" as="geometry">
            <mxPoint x="260" y="220" as="sourcePoint" />
            <mxPoint x="300" y="220" as="targetPoint" />
          </mxGeometry>
        </mxCell>
        <mxCell id="SfF8hPCJs0BWfvehX4Wd-46" value="" style="endArrow=none;html=1;rounded=0;" parent="1" edge="1">
          <mxGeometry width="50" height="50" relative="1" as="geometry">
            <mxPoint x="319" y="280" as="sourcePoint" />
            <mxPoint x="360" y="280" as="targetPoint" />
          </mxGeometry>
        </mxCell>
        <mxCell id="SfF8hPCJs0BWfvehX4Wd-47" value="" style="endArrow=none;html=1;rounded=0;" parent="1" edge="1">
          <mxGeometry width="50" height="50" relative="1" as="geometry">
            <mxPoint x="89" y="250" as="sourcePoint" />
            <mxPoint x="130" y="250" as="targetPoint" />
          </mxGeometry>
        </mxCell>
      </root>
    </mxGraphModel>
  </diagram>
</mxfile>
